<svg xmlns="http://www.w3.org/2000/svg" width="1562.719" height="1605.882" viewBox="0 0 1562.719 1605.882">
  <g id="Group_373" data-name="Group 373" transform="translate(-131.141 -109.559)">
    <path id="Path_605" data-name="Path 605" d="M1437.5,686.577c-10.89-5.4-17.789-17.1-21.856-28.185-4.656-12.62-5.987-26.038-6.994-39.342-.57-7.412-1.064-14.805-2.052-22.161-.8-6.12-1.635-12.468-3.782-18.284-3.782-10.168-10.7-19.177-18.113-26.969-6.481-6.842-14.349-13.95-23.263-17.79.418-.152.837-.323,1.254-.475a188.992,188.992,0,0,0,19.652-8.743,186.329,186.329,0,0,0,35.541-24.232,2.408,2.408,0,0,0-.476-3.745c-17.124-9.008-28.413-25.145-39.152-40.691-10.6-15.338-21.647-31.036-37.8-41.052-6.937-4.3-15.945-8.1-24.46-7.811a86.488,86.488,0,0,0,6.234-23.13,101.261,101.261,0,0,0-.646-28.356,2.6,2.6,0,0,0-3.782-1.54c-12.885,8.515-29.268,10.225-41.812.494a166.64,166.64,0,0,0-11.422-47.97c-5.512-13.646-13.684-26.095-18.93-39.855-4.941-12.962-6.9-28.318.855-40.615a2.374,2.374,0,0,0-2.661-3.44,79.754,79.754,0,0,0-48.027,44.321c-4.447-19.614-12.6-38.505-22.883-55.592a327.033,327.033,0,0,0-19.309-28.11c-6.747-8.971-14.159-17.371-21.134-26.152-.855-1.084-2.281.133-2.072,1.216.133.76.209,1.521.323,2.281a1.048,1.048,0,0,0-.874,1.464c.513,1.064.95,2.167,1.425,3.269,1.141,13.855-1.558,27.844-6.823,40.9,1.083-21.99-9.636-44.53-27.026-57.853a1.983,1.983,0,0,0-2.908,1.179,136.185,136.185,0,0,1-9.541,31.283,123.821,123.821,0,0,0-4.124-24.118c-4.96-17.732-14.368-33.279-24.878-48.217-11.46-16.25-23.89-32.4-29.972-51.6-.551-1.672-3.25-2.395-4.124-.532a194.626,194.626,0,0,1-55.63,70.245,127.093,127.093,0,0,1-6.557-13.551c-7.887-19.31-11.08-42.306.4-60.894a2.461,2.461,0,0,0-2.109-3.668c-40.159,3.1-77.543,26.057-99.742,59.488a102.57,102.57,0,0,0-12.9,27.083A144.814,144.814,0,0,0,838.6,117.4c-8.572-18.721-22.2-33.64-34.59-49.795-14.045-18.34-26.4-41.242-18.663-64.809.57-1.749-1.178-3.022-2.737-2.756a63.78,63.78,0,0,0-12.791,3.782.84.84,0,0,0-1.064-.19c-1.008.608-1.92,1.292-2.852,1.977-15.945,7.868-28.831,22.217-33.906,39.361a65.431,65.431,0,0,0-2.508,13.627,197.444,197.444,0,0,0-34.172-39.855c-2.889-2.6-5.892-5.074-8.838-7.6a1.755,1.755,0,0,0-2.908,1.691c2.775,10.358,4.885,21.115,5.018,31.873a163.043,163.043,0,0,1-1.463,24.555,44.313,44.313,0,0,0-2.547-6.158,53.264,53.264,0,0,0-14.882-17.884c-7.165-5.607-15.432-9.788-22.122-15.965-6.367-5.854-12.011-14.33-10.434-23.377.266-1.558-1.426-3.5-3.022-2.319-1.369.988-2.68,2-3.972,3.06a.968.968,0,0,0-1.026.475l-.3.665a97.605,97.605,0,0,0-33.469,61.027,85.738,85.738,0,0,0-.418,17.941,150.881,150.881,0,0,0-63.27-55.933,156.913,156.913,0,0,0-47-13.551c-2.034-.247-3.25,2.85-1.711,4.1,15.071,12.335,14.387,34.02,9.255,51.011-3.231,10.757-7.944,20.982-11.613,31.587a129.832,129.832,0,0,0-6.614,27.273,58.13,58.13,0,0,0,.209,17.125q-9.721-11.746-20.3-22.636c-19.918-20.621-41.68-39.342-63.46-57.929A2.188,2.188,0,0,0,387,70.413c.475.988.855,2.015,1.254,3.041a.937.937,0,0,0,.019,1.388c.285.3.551.627.855.931,8.039,23.4-.057,49.358-9.9,71.1-10.624,23.414-25.524,45.043-33.279,69.694A86.461,86.461,0,0,0,342.835,230c-.418-1.52-.836-3.022-1.387-4.5A66.479,66.479,0,0,0,331.3,207.691c-19.652-24.9-51.866-34.419-82.5-34.172-21.591.19-42.991,3.953-64.068,8.324a2.587,2.587,0,0,0-1.14,4.3,198.53,198.53,0,0,1,50.935,75.889,208.427,208.427,0,0,1,7.488,23.814,178.375,178.375,0,0,0-49-20.754,168.845,168.845,0,0,0-41.736-5.169,2.42,2.42,0,0,0-2.072,3.63,122.242,122.242,0,0,1,20.811,71.366c-18.055-18.36-47.267-24.84-72.012-20.944a82.819,82.819,0,0,0-22.426,6.956c-1.673.8-1.178,3.459.513,3.878,16.516,4.162,23.947,22.845,23.168,38.468-1.084,21.267-12.943,39.969-17.751,60.362-2.433,10.32-3.516,21.856-.114,32.12a212.4,212.4,0,0,0-21.724,1.824c-14.254,1.9-28.394,4.809-42.439,7.945-2.965.665-2.072,4.846.685,5.056,12.79.931,22.92,9.75,29.192,20.431,7.469,12.658,9.389,27.007,8.781,41.489-.779,17.827-4.942,35.313-5.55,53.159a86.143,86.143,0,0,0,6.975,36.928c4.694,10.909,12.2,21.059,22.9,26.437a79.2,79.2,0,0,1-15.889,6.2A34.066,34.066,0,0,1,21.81,623.687c.19-1.33.418-2.642.7-3.934a1.121,1.121,0,0,0-.627-1.2,32.7,32.7,0,0,1,.741-4.5c.551-2.394-2.851-4.029-4.105-1.729A153.415,153.415,0,0,0,.543,698.114,149.641,149.641,0,0,0,29.812,774.84c9.161,12.183,30.675,3.516,43.086,12.373.247.19-10.054,19.633-9.845,19.614A101.332,101.332,0,0,0,9.361,884.882,107.034,107.034,0,0,0,11.6,921.925c.437,1.843,3.1,1.026,2.793-.761-2.033-12.486,8.876-22.94,19.9-26.417,14.577-4.6,30.371,1.311,44.188,5.853a96.78,96.78,0,0,0,16.535,3.725c-34.476,12.03-58.309,45.937-65.418,80.964a106.445,106.445,0,0,0-1.691,32.1c.228,2.261,3.687,3.174,4.257.589,3.9-17.713,24.479-23,40.615-20.583-.665,1.957-1.349,4.048-2.071,6.2-8.021,12.031-11.366,27.425-11.061,41.775a12.856,12.856,0,0,0,.152,4.372,1.813,1.813,0,0,0,3.06,1.254,31.525,31.525,0,0,1,19.918-6.709,98.763,98.763,0,0,1,14.254,2.965,40.446,40.446,0,0,1,8.857,6.063,69,69,0,0,1-35.388,12.7,1.776,1.776,0,0,0-.893,3.288c17.922,11.137,37.289,20.792,57.492,27.406l-.1.437a1.123,1.123,0,0,0-1.2.627c-8.78,19.328-6.4,41.166,2.072,60.153,12.734,47.172,74.9,71.861,74.9,71.861,2.3,1.482,4.181-1.654,2.718-3.516a17.473,17.473,0,0,1-1.748-2.888l4.732-31.436a37.305,37.305,0,0,1,3.212-3.8c7.2-7.374,16.421-12.011,25.848-16.249-9.427,9.408-16.155,21.78-20.7,34.115-3.9,10.51-6.785,21.78-7.336,33.032a85.792,85.792,0,0,0,5.436,34.077,83.09,83.09,0,0,0,22.218,32.842,2.528,2.528,0,0,0,3.459,0,178.6,178.6,0,0,1,46.279-32.575,101.147,101.147,0,0,0-7.412,19.367,93.582,93.582,0,0,0-3.155,24.726c0,1.958,2.7,3.326,4.1,1.692,8.325-9.655,20.716-12.107,32.956-12.316a219.479,219.479,0,0,1,24.441,1.368c-4.371,5.855-8.7,11.746-11.745,18.436a64.733,64.733,0,0,0-5.588,22.864,1.95,1.95,0,0,0,3.307,1.369c10.833-12.012,29.421-14.217,44.245-9.427,6.8,2.2,13.19,5.55,20.051,7.6a49.537,49.537,0,0,0,8.667,1.711c-2.794.818-5.626,1.558-8.5,2.167a105.743,105.743,0,0,1-27.9,1.92c-2.661-.152-2.965,3.25-1.235,4.542,28.09,20.963,58.48,40.691,93.983,45.347,16.706,2.186,34.134,1.007,49.966-4.979a78.827,78.827,0,0,0,25.183-15.395c-10.53,23-11.727,50.536-6.215,74.787a106.289,106.289,0,0,0,8.7,24.232,2.259,2.259,0,0,0,4.086-.552c2.395-9.978,11.841-16.079,21.229-18.663,12.107-3.327,24.917-2.2,37.156-4.9a82.057,82.057,0,0,0,53.159-40.426,96.53,96.53,0,0,1-5.569,16.839,2.584,2.584,0,0,0,3.5,3.5,157.842,157.842,0,0,0,59.7-47.628,194.394,194.394,0,0,1,6.006,44.872c.171,15.719-1.787,31.816-7.926,46.393-.76,1.805,1.464,3.839,3.212,3.212,28.6-10.3,57.416-20.926,83.948-35.978,25.182-14.312,48.1-32.974,63.878-57.53.893-1.425,1.787-2.851,2.642-4.314-.361,12.2,4.105,24.86,10.567,34.78a67.143,67.143,0,0,0,61.578,29.687c1.806-.171,3.4-2.6,1.673-4.029a11.35,11.35,0,0,1-2.851-3.592,2.242,2.242,0,0,0-.038-2.11,26.9,26.9,0,0,1-1.35-3.269,18.8,18.8,0,0,1,.95-6.785c2.2-6.615,7.925-11.537,12.9-16.1a119.021,119.021,0,0,0,23.947-30.01c4.542.038,8.344,3.174,11.023,6.747,2.908,3.839,4.181,8.571,5.17,13.209,2.052,9.5,2.452,19.671,7.317,28.3a2.287,2.287,0,0,0,3.516.457c10.282-8.438,19.918-17.789,26.931-29.193a72.77,72.77,0,0,0,10.852-34.286,87.582,87.582,0,0,0-1.311-20.051c8.381,2.7,16.8,5.3,25.3,7.679a2.158,2.158,0,0,0,2.394-3.136c-3.744-7.431-3.991-15.413-2.7-23.377,7.469,5.208,13.038,13.4,17.96,20.869,5.4,8.191,10.434,16.668,16.744,24.232,1.368,1.634,3.725.171,3.858-1.616a36.673,36.673,0,0,1,.626-4.371,1.438,1.438,0,0,0,1.388-1.407,27.381,27.381,0,0,0-.133-3.288c4.9-14.786,18.074-26.247,27.748-37.954a93.428,93.428,0,0,0,21.7-55.116c.57-11.214-.551-23.472-4.942-33.906l-.152-.228c2.356-.8,4.694-1.635,7.032-2.585,4.751-1.919,10.415-4.257,15.585-2.775a11.7,11.7,0,0,1,3.041,1.369c.114.209.209.418.342.627a2.606,2.606,0,0,0,1.768,1.1,6.613,6.613,0,0,1,1.977,6.462c-.913,3.288,3.934,4.542,5.055,1.387a86.335,86.335,0,0,0,4.086-17.6,35.1,35.1,0,0,1,20.241,36.358,2.1,2.1,0,0,0,3.155,1.805q5.047-3.706,9.807-7.812a2.679,2.679,0,0,0,2.3-1.083,22.152,22.152,0,0,0,1.387-2.186c3.478-3.174,6.785-6.538,9.959-10.016a33.817,33.817,0,0,0,7.621-9.123,133.068,133.068,0,0,0,22.655-43.657,111.857,111.857,0,0,0,4.5-35.217,2.234,2.234,0,0,0,.76.247c22.027,2.414,44.663.513,66.386-3.459a2.5,2.5,0,0,0,1.729-3.041c-8.4-27.026.457-55.934-7.07-83.15a73.935,73.935,0,0,0-7.108-16.953,45.485,45.485,0,0,0,9.351,2.813c14.387,2.68,28.357-1.349,41.128-7.944a242.778,242.778,0,0,0,23.529-14.5c1.292-.874,1.406-3.5-.494-3.782-10.035-1.482-17.257-8.7-21.572-17.561-4.827-9.96-5.53-20.849-4.408-31.7.835-8.021,2.47-15.928,3.8-23.872,3.117,5.474,7.337,10.13,10.681,15.47,5.056,8.115,5.3,17.353,3.8,26.57-.285,1.749,1.71,3.288,3.155,1.844,32.462-32.9,44.055-83.644,27.007-126.921A122.612,122.612,0,0,0,1387.65,837.9c-.95-1.141-2.281-.513-2.775.551-.152-1.521-.3-3.06-.494-4.581a69.234,69.234,0,0,0,10.092,6.842c2.394,3.117,5.151,6.025,8.344,7.64a1.829,1.829,0,0,0,2.489-2.47l-.076-.115c2.243.875,4.523,1.673,6.823,2.376a2.351,2.351,0,0,0,1.406.437c1.919.57,3.858,1.1,5.8,1.558a2.233,2.233,0,0,0,2.7-1.539q2.566-7.839,4.485-15.851a38.978,38.978,0,0,0,1.825-7.013c.4-2.053.684-4.124.912-6.2.438-2.547.836-5.112,1.179-7.678.969-1.577.988-3.858,1.2-5.607a61.27,61.27,0,0,0,.4-7.925c-.019-.722-.057-1.445-.095-2.148.19-3.231.323-6.443.342-9.655.152-18.074-1.977-37.555-16.4-50.156-7.526-6.557-16.478-10.624-25.715-14.14a.731.731,0,0,0-.741.095l-.38-.152c16.668-7.431,31.949-18.017,46.089-29.516l.266.114c1.406.589,2.661-.969,2.052-2,.209-.171.418-.323.608-.494a2.371,2.371,0,0,0-.475-3.706m-238.388,566.768a53.485,53.485,0,0,0-2.167-8.4c-.361-4.22-.76-8.913-1.2-13.969a85.21,85.21,0,0,1,3.364,22.35v.019" transform="matrix(0.996, -0.087, 0.087, 0.996, 131.141, 234.947)" fill="#00aded"/>
    <path id="Path_606" data-name="Path 606" d="M234.962,270.774C303.63,194.39,341.337,81.23,377.125,0c59.963,11.613,155.694,44.492,210.81,74.464C533.788,261.1,493.173,297.857,448.68,348.146c87.027,23.205,142.162,219.516,139.254,384.884-83.168,7.735-160.522,7.735-239.832,4.828C328.774,586.04,316.192,479.665,241.747,487.4c-5.815,76.4-4.846,163.43-6.785,244.66-89.935,2.889-149.879,5.8-234.016-.969-3.877-264.008,5.8-476.758,0-718.51C110.229,4.847,174.03,4.847,237.87,5.816c.969,89.935.969,179.869-2.908,264.958" transform="matrix(0.996, -0.087, 0.087, 0.996, 587.389, 542.856)"/>
  </g>
</svg>
